<svg aria-hidden="true" xmlns="http://www.w3.org/2000/svg" width="641" height="586" viewBox="0 0 641 586"><g fill="#E2D1FF" fill-rule="evenodd"><path d="M441,40 C463.056,40 481,57.944 481,80 L481,160 C481,204.112 516.888,240 561,240 C605.112,240 641,204.112 641,160 L601,160 C601,182.056 583.056,200 561,200 C538.944,200 521,182.056 521,160 L521,80 C521,35.888 485.112,0 441,0 C396.888,0 361,35.888 361,80 L401,80 C401,57.944 418.944,40 441,40"/><path d="M37,417 L37,457 C147.28,457 237,367.28 237,257 L197,257 C197,345.225 125.225,417 37,417"/><path d="M0 160L120 160 120 120 0 120z"/><path d="M544,466 C510.863,466 484,492.863 484,526 C484,559.137 510.863,586 544,586 C577.137,586 604,559.137 604,526 C604,492.863 577.137,466 544,466 M544,506 C555.028,506 564,514.973 564,526 C564,537.027 555.028,546 544,546 C532.972,546 524,537.027 524,526 C524,514.973 532.972,506 544,506"/></g></svg>